<?xml version="1.0" encoding="UTF-8" standalone="no"?>
<!DOCTYPE svg PUBLIC "-//W3C//DTD SVG 1.1//EN"
 "http://www.w3.org/Graphics/SVG/1.1/DTD/svg11.dtd">
<!-- Generated by graphviz version 2.38.0 (20140413.2041)
 -->
<!-- Title: controllers_diagram Pages: 1 -->
<svg width="851pt" height="769pt"
 viewBox="0.00 0.00 851.31 768.72" xmlns="http://www.w3.org/2000/svg" xmlns:xlink="http://www.w3.org/1999/xlink">
<g id="graph0" class="graph" transform="scale(1 1) rotate(0) translate(321.624 394.128)">
<title>controllers_diagram</title>
<polygon fill="white" stroke="none" points="-321.624,374.59 -321.624,-394.128 529.688,-394.128 529.688,374.59 -321.624,374.59"/>
<!-- _diagram_info -->
<g id="node1" class="node"><title>_diagram_info</title>
<text text-anchor="start" x="326.312" y="258.9" font-family="Times,serif" font-size="13.00">Controllers diagram</text>
<text text-anchor="start" x="326.312" y="271.9" font-family="Times,serif" font-size="13.00">Date: Sep 08 2014 &#45; 14:18</text>
<text text-anchor="start" x="326.312" y="284.9" font-family="Times,serif" font-size="13.00">Migration version: 20140830022628</text>
<text text-anchor="start" x="326.312" y="297.9" font-family="Times,serif" font-size="13.00">Generated by RailRoady 1.1.2</text>
<text text-anchor="start" x="326.312" y="310.9" font-family="Times,serif" font-size="13.00">http://railroady.prestonlee.com</text>
</g>
<!-- ApplicationController -->
<g id="node2" class="node"><title>ApplicationController</title>
<path fill="none" stroke="black" d="M-107.905,28.6456C-107.905,28.6456 66.0267,28.6456 66.0267,28.6456 72.0267,28.6456 78.0267,22.6456 78.0267,16.6456 78.0267,16.6456 78.0267,-49.3544 78.0267,-49.3544 78.0267,-55.3544 72.0267,-61.3544 66.0267,-61.3544 66.0267,-61.3544 -107.905,-61.3544 -107.905,-61.3544 -113.905,-61.3544 -119.905,-55.3544 -119.905,-49.3544 -119.905,-49.3544 -119.905,16.6456 -119.905,16.6456 -119.905,22.6456 -113.905,28.6456 -107.905,28.6456"/>
<text text-anchor="middle" x="-20.9391" y="-46.1544" font-family="Times,serif" font-size="14.00">ApplicationController</text>
<polyline fill="none" stroke="black" points="-119.905,-39.3544 78.0267,-39.3544 "/>
<polyline fill="none" stroke="black" points="-119.905,-15.3544 78.0267,-15.3544 "/>
<text text-anchor="start" x="-111.905" y="-0.154366" font-family="Times,serif" font-size="14.00">configure_permitted_parameters</text>
<polyline fill="none" stroke="black" points="-119.905,6.64563 78.0267,6.64563 "/>
<text text-anchor="start" x="-111.905" y="21.8456" font-family="Times,serif" font-size="14.00">_layout</text>
</g>
<!-- CommentsController -->
<g id="node3" class="node"><title>CommentsController</title>
<path fill="none" stroke="black" d="M138.673,83.3241C138.673,83.3241 248.887,83.3241 248.887,83.3241 254.887,83.3241 260.887,77.3241 260.887,71.3241 260.887,71.3241 260.887,-106.676 260.887,-106.676 260.887,-112.676 254.887,-118.676 248.887,-118.676 248.887,-118.676 138.673,-118.676 138.673,-118.676 132.673,-118.676 126.673,-112.676 126.673,-106.676 126.673,-106.676 126.673,71.3241 126.673,71.3241 126.673,77.3241 132.673,83.3241 138.673,83.3241"/>
<text text-anchor="middle" x="193.78" y="-103.476" font-family="Times,serif" font-size="14.00">CommentsController</text>
<polyline fill="none" stroke="black" points="126.673,-96.6759 260.887,-96.6759 "/>
<text text-anchor="start" x="134.673" y="-81.4759" font-family="Times,serif" font-size="14.00">create</text>
<text text-anchor="start" x="134.673" y="-67.4759" font-family="Times,serif" font-size="14.00">destroy</text>
<text text-anchor="start" x="134.673" y="-53.4759" font-family="Times,serif" font-size="14.00">edit</text>
<text text-anchor="start" x="134.673" y="-39.4759" font-family="Times,serif" font-size="14.00">index</text>
<text text-anchor="start" x="134.673" y="-25.4759" font-family="Times,serif" font-size="14.00">new</text>
<text text-anchor="start" x="134.673" y="-11.4759" font-family="Times,serif" font-size="14.00">show</text>
<text text-anchor="start" x="134.673" y="2.52413" font-family="Times,serif" font-size="14.00">update</text>
<polyline fill="none" stroke="black" points="126.673,9.32413 260.887,9.32413 "/>
<polyline fill="none" stroke="black" points="126.673,33.3241 260.887,33.3241 "/>
<text text-anchor="start" x="134.673" y="48.5241" font-family="Times,serif" font-size="14.00">_layout</text>
<text text-anchor="start" x="134.673" y="62.5241" font-family="Times,serif" font-size="14.00">comment_params</text>
<text text-anchor="start" x="134.673" y="76.5241" font-family="Times,serif" font-size="14.00">set_comment</text>
</g>
<!-- ApplicationController&#45;&gt;CommentsController -->
<g id="edge1" class="edge"><title>ApplicationController&#45;&gt;CommentsController</title>
<path fill="none" stroke="black" d="M78.2497,-16.9648C94.6223,-17.0656 111.25,-17.1679 126.597,-17.2624"/>
</g>
<!-- DiscussionsController -->
<g id="node4" class="node"><title>DiscussionsController</title>
<path fill="none" stroke="black" d="M-237.715,370.09C-237.715,370.09 -75.404,370.09 -75.404,370.09 -69.404,370.09 -63.404,364.09 -63.404,358.09 -63.404,358.09 -63.404,138.09 -63.404,138.09 -63.404,132.09 -69.404,126.09 -75.404,126.09 -75.404,126.09 -237.715,126.09 -237.715,126.09 -243.715,126.09 -249.715,132.09 -249.715,138.09 -249.715,138.09 -249.715,358.09 -249.715,358.09 -249.715,364.09 -243.715,370.09 -237.715,370.09"/>
<text text-anchor="middle" x="-156.559" y="141.29" font-family="Times,serif" font-size="14.00">DiscussionsController</text>
<polyline fill="none" stroke="black" points="-249.715,148.09 -63.404,148.09 "/>
<text text-anchor="start" x="-241.715" y="163.29" font-family="Times,serif" font-size="14.00">comment</text>
<text text-anchor="start" x="-241.715" y="177.29" font-family="Times,serif" font-size="14.00">create</text>
<text text-anchor="start" x="-241.715" y="191.29" font-family="Times,serif" font-size="14.00">destroy</text>
<text text-anchor="start" x="-241.715" y="205.29" font-family="Times,serif" font-size="14.00">edit</text>
<text text-anchor="start" x="-241.715" y="219.29" font-family="Times,serif" font-size="14.00">index</text>
<text text-anchor="start" x="-241.715" y="233.29" font-family="Times,serif" font-size="14.00">new</text>
<text text-anchor="start" x="-241.715" y="247.29" font-family="Times,serif" font-size="14.00">render_comments</text>
<text text-anchor="start" x="-241.715" y="261.29" font-family="Times,serif" font-size="14.00">show</text>
<text text-anchor="start" x="-241.715" y="275.29" font-family="Times,serif" font-size="14.00">update</text>
<polyline fill="none" stroke="black" points="-249.715,282.09 -63.404,282.09 "/>
<polyline fill="none" stroke="black" points="-249.715,306.09 -63.404,306.09 "/>
<text text-anchor="start" x="-241.715" y="321.29" font-family="Times,serif" font-size="14.00">_layout</text>
<text text-anchor="start" x="-241.715" y="335.29" font-family="Times,serif" font-size="14.00">discussion_comments_params</text>
<text text-anchor="start" x="-241.715" y="349.29" font-family="Times,serif" font-size="14.00">discussion_params</text>
<text text-anchor="start" x="-241.715" y="363.29" font-family="Times,serif" font-size="14.00">set_discussion</text>
</g>
<!-- ApplicationController&#45;&gt;DiscussionsController -->
<g id="edge2" class="edge"><title>ApplicationController&#45;&gt;DiscussionsController</title>
<path fill="none" stroke="black" d="M-44.0989,28.8048C-57.9058,55.7266 -76.1583,91.3171 -93.933,125.976"/>
</g>
<!-- LectureRecordingsController -->
<g id="node5" class="node"><title>LectureRecordingsController</title>
<path fill="none" stroke="black" d="M-305.624,-103.628C-305.624,-103.628 -149.568,-103.628 -149.568,-103.628 -143.568,-103.628 -137.568,-109.628 -137.568,-115.628 -137.568,-115.628 -137.568,-377.628 -137.568,-377.628 -137.568,-383.628 -143.568,-389.628 -149.568,-389.628 -149.568,-389.628 -305.624,-389.628 -305.624,-389.628 -311.624,-389.628 -317.624,-383.628 -317.624,-377.628 -317.624,-377.628 -317.624,-115.628 -317.624,-115.628 -317.624,-109.628 -311.624,-103.628 -305.624,-103.628"/>
<text text-anchor="middle" x="-227.596" y="-374.428" font-family="Times,serif" font-size="14.00">LectureRecordingsController</text>
<polyline fill="none" stroke="black" points="-317.624,-367.628 -137.568,-367.628 "/>
<text text-anchor="start" x="-309.624" y="-352.428" font-family="Times,serif" font-size="14.00">create</text>
<text text-anchor="start" x="-309.624" y="-338.428" font-family="Times,serif" font-size="14.00">create_discussion</text>
<text text-anchor="start" x="-309.624" y="-324.428" font-family="Times,serif" font-size="14.00">destroy</text>
<text text-anchor="start" x="-309.624" y="-310.428" font-family="Times,serif" font-size="14.00">edit</text>
<text text-anchor="start" x="-309.624" y="-296.428" font-family="Times,serif" font-size="14.00">get_discussions</text>
<text text-anchor="start" x="-309.624" y="-282.428" font-family="Times,serif" font-size="14.00">index</text>
<text text-anchor="start" x="-309.624" y="-268.428" font-family="Times,serif" font-size="14.00">new</text>
<text text-anchor="start" x="-309.624" y="-254.428" font-family="Times,serif" font-size="14.00">render_discussions</text>
<text text-anchor="start" x="-309.624" y="-240.428" font-family="Times,serif" font-size="14.00">show</text>
<text text-anchor="start" x="-309.624" y="-226.428" font-family="Times,serif" font-size="14.00">update</text>
<polyline fill="none" stroke="black" points="-317.624,-219.628 -137.568,-219.628 "/>
<polyline fill="none" stroke="black" points="-317.624,-195.628 -137.568,-195.628 "/>
<text text-anchor="start" x="-309.624" y="-180.428" font-family="Times,serif" font-size="14.00">_layout</text>
<text text-anchor="start" x="-309.624" y="-166.428" font-family="Times,serif" font-size="14.00">lecture_discussion_params</text>
<text text-anchor="start" x="-309.624" y="-152.428" font-family="Times,serif" font-size="14.00">lecture_recording_params</text>
<text text-anchor="start" x="-309.624" y="-138.428" font-family="Times,serif" font-size="14.00">set_lecture_recording</text>
<text text-anchor="start" x="-309.624" y="-124.428" font-family="Times,serif" font-size="14.00">set_semester</text>
<text text-anchor="start" x="-309.624" y="-110.428" font-family="Times,serif" font-size="14.00">set_uos</text>
</g>
<!-- ApplicationController&#45;&gt;LectureRecordingsController -->
<g id="edge3" class="edge"><title>ApplicationController&#45;&gt;LectureRecordingsController</title>
<path fill="none" stroke="black" d="M-61.5213,-61.5743C-83.2675,-85.8056 -110.981,-116.686 -137.51,-146.248"/>
</g>
<!-- SemestersController -->
<g id="node6" class="node"><title>SemestersController</title>
<path fill="none" stroke="black" d="M131.444,-163.383C131.444,-163.383 237.755,-163.383 237.755,-163.383 243.755,-163.383 249.755,-169.383 249.755,-175.383 249.755,-175.383 249.755,-367.383 249.755,-367.383 249.755,-373.383 243.755,-379.383 237.755,-379.383 237.755,-379.383 131.444,-379.383 131.444,-379.383 125.444,-379.383 119.444,-373.383 119.444,-367.383 119.444,-367.383 119.444,-175.383 119.444,-175.383 119.444,-169.383 125.444,-163.383 131.444,-163.383"/>
<text text-anchor="middle" x="184.599" y="-364.183" font-family="Times,serif" font-size="14.00">SemestersController</text>
<polyline fill="none" stroke="black" points="119.444,-357.383 249.755,-357.383 "/>
<text text-anchor="start" x="127.444" y="-342.183" font-family="Times,serif" font-size="14.00">create</text>
<text text-anchor="start" x="127.444" y="-328.183" font-family="Times,serif" font-size="14.00">destroy</text>
<text text-anchor="start" x="127.444" y="-314.183" font-family="Times,serif" font-size="14.00">edit</text>
<text text-anchor="start" x="127.444" y="-300.183" font-family="Times,serif" font-size="14.00">index</text>
<text text-anchor="start" x="127.444" y="-286.183" font-family="Times,serif" font-size="14.00">new</text>
<text text-anchor="start" x="127.444" y="-272.183" font-family="Times,serif" font-size="14.00">show</text>
<text text-anchor="start" x="127.444" y="-258.183" font-family="Times,serif" font-size="14.00">update</text>
<polyline fill="none" stroke="black" points="119.444,-251.383 249.755,-251.383 "/>
<polyline fill="none" stroke="black" points="119.444,-227.383 249.755,-227.383 "/>
<text text-anchor="start" x="127.444" y="-212.183" font-family="Times,serif" font-size="14.00">_layout</text>
<text text-anchor="start" x="127.444" y="-198.183" font-family="Times,serif" font-size="14.00">semester_params</text>
<text text-anchor="start" x="127.444" y="-184.183" font-family="Times,serif" font-size="14.00">set_semester</text>
<text text-anchor="start" x="127.444" y="-170.183" font-family="Times,serif" font-size="14.00">set_uos</text>
</g>
<!-- ApplicationController&#45;&gt;SemestersController -->
<g id="edge4" class="edge"><title>ApplicationController&#45;&gt;SemestersController</title>
<path fill="none" stroke="black" d="M15.3339,-61.3613C44.0878,-97.0386 85.0127,-147.817 119.418,-190.508"/>
</g>
<!-- UnitOfStudiesController -->
<g id="node7" class="node"><title>UnitOfStudiesController</title>
<path fill="none" stroke="black" d="M-96.2826,-182.363C-96.2826,-182.363 34.1519,-182.363 34.1519,-182.363 40.1519,-182.363 46.1519,-188.363 46.1519,-194.363 46.1519,-194.363 46.1519,-372.363 46.1519,-372.363 46.1519,-378.363 40.1519,-384.363 34.1519,-384.363 34.1519,-384.363 -96.2826,-384.363 -96.2826,-384.363 -102.283,-384.363 -108.283,-378.363 -108.283,-372.363 -108.283,-372.363 -108.283,-194.363 -108.283,-194.363 -108.283,-188.363 -102.283,-182.363 -96.2826,-182.363"/>
<text text-anchor="middle" x="-31.0654" y="-369.163" font-family="Times,serif" font-size="14.00">UnitOfStudiesController</text>
<polyline fill="none" stroke="black" points="-108.283,-362.363 46.1519,-362.363 "/>
<text text-anchor="start" x="-100.283" y="-347.163" font-family="Times,serif" font-size="14.00">create</text>
<text text-anchor="start" x="-100.283" y="-333.163" font-family="Times,serif" font-size="14.00">destroy</text>
<text text-anchor="start" x="-100.283" y="-319.163" font-family="Times,serif" font-size="14.00">edit</text>
<text text-anchor="start" x="-100.283" y="-305.163" font-family="Times,serif" font-size="14.00">index</text>
<text text-anchor="start" x="-100.283" y="-291.163" font-family="Times,serif" font-size="14.00">new</text>
<text text-anchor="start" x="-100.283" y="-277.163" font-family="Times,serif" font-size="14.00">show</text>
<text text-anchor="start" x="-100.283" y="-263.163" font-family="Times,serif" font-size="14.00">update</text>
<polyline fill="none" stroke="black" points="-108.283,-256.363 46.1519,-256.363 "/>
<polyline fill="none" stroke="black" points="-108.283,-232.363 46.1519,-232.363 "/>
<text text-anchor="start" x="-100.283" y="-217.163" font-family="Times,serif" font-size="14.00">_layout</text>
<text text-anchor="start" x="-100.283" y="-203.163" font-family="Times,serif" font-size="14.00">set_unit_of_study</text>
<text text-anchor="start" x="-100.283" y="-189.163" font-family="Times,serif" font-size="14.00">unit_of_study_params</text>
</g>
<!-- ApplicationController&#45;&gt;UnitOfStudiesController -->
<g id="edge5" class="edge"><title>ApplicationController&#45;&gt;UnitOfStudiesController</title>
<path fill="none" stroke="black" d="M-22.6569,-61.6488C-23.9096,-94.6795 -25.6568,-140.75 -27.2341,-182.341"/>
</g>
<!-- UsersController -->
<g id="node8" class="node"><title>UsersController</title>
<path fill="none" stroke="black" d="M-269.166,109.879C-269.166,109.879 -187.739,109.879 -187.739,109.879 -181.739,109.879 -175.739,103.879 -175.739,97.8794 -175.739,97.8794 -175.739,-38.1206 -175.739,-38.1206 -175.739,-44.1206 -181.739,-50.1206 -187.739,-50.1206 -187.739,-50.1206 -269.166,-50.1206 -269.166,-50.1206 -275.166,-50.1206 -281.166,-44.1206 -281.166,-38.1206 -281.166,-38.1206 -281.166,97.8794 -281.166,97.8794 -281.166,103.879 -275.166,109.879 -269.166,109.879"/>
<text text-anchor="middle" x="-228.452" y="-34.9206" font-family="Times,serif" font-size="14.00">UsersController</text>
<polyline fill="none" stroke="black" points="-281.166,-28.1206 -175.739,-28.1206 "/>
<text text-anchor="start" x="-273.166" y="-12.9206" font-family="Times,serif" font-size="14.00">destroy</text>
<text text-anchor="start" x="-273.166" y="1.07938" font-family="Times,serif" font-size="14.00">edit</text>
<text text-anchor="start" x="-273.166" y="15.0794" font-family="Times,serif" font-size="14.00">index</text>
<text text-anchor="start" x="-273.166" y="29.0794" font-family="Times,serif" font-size="14.00">show</text>
<text text-anchor="start" x="-273.166" y="43.0794" font-family="Times,serif" font-size="14.00">update</text>
<polyline fill="none" stroke="black" points="-281.166,49.8794 -175.739,49.8794 "/>
<polyline fill="none" stroke="black" points="-281.166,73.8794 -175.739,73.8794 "/>
<text text-anchor="start" x="-273.166" y="89.0794" font-family="Times,serif" font-size="14.00">_layout</text>
<text text-anchor="start" x="-273.166" y="103.079" font-family="Times,serif" font-size="14.00">user_params</text>
</g>
<!-- ApplicationController&#45;&gt;UsersController -->
<g id="edge6" class="edge"><title>ApplicationController&#45;&gt;UsersController</title>
<path fill="none" stroke="black" d="M-120.137,5.74692C-139.311,10.0188 -158.692,14.3369 -175.656,18.1164"/>
</g>
<!-- VisitorsController -->
<g id="node9" class="node"><title>VisitorsController</title>
<path fill="none" stroke="black" d="M103.175,276.769C103.175,276.769 196.224,276.769 196.224,276.769 202.224,276.769 208.224,270.769 208.224,264.769 208.224,264.769 208.224,196.769 208.224,196.769 208.224,190.769 202.224,184.769 196.224,184.769 196.224,184.769 103.175,184.769 103.175,184.769 97.1749,184.769 91.1749,190.769 91.1749,196.769 91.1749,196.769 91.1749,264.769 91.1749,264.769 91.1749,270.769 97.1749,276.769 103.175,276.769"/>
<text text-anchor="middle" x="149.699" y="199.969" font-family="Times,serif" font-size="14.00">VisitorsController</text>
<polyline fill="none" stroke="black" points="91.1749,206.769 208.224,206.769 "/>
<polyline fill="none" stroke="black" points="91.1749,230.769 208.224,230.769 "/>
<polyline fill="none" stroke="black" points="91.1749,254.769 208.224,254.769 "/>
<text text-anchor="start" x="99.1749" y="269.969" font-family="Times,serif" font-size="14.00">_layout</text>
</g>
<!-- ApplicationController&#45;&gt;VisitorsController -->
<g id="edge7" class="edge"><title>ApplicationController&#45;&gt;VisitorsController</title>
<path fill="none" stroke="black" d="M10.1602,28.6846C40.633,72.8163 86.8622,139.767 117.656,184.363"/>
</g>
</g>
</svg>
