<?xml version="1.0" encoding="UTF-8" standalone="no"?>
<!DOCTYPE svg PUBLIC "-//W3C//DTD SVG 1.1//EN"
 "http://www.w3.org/Graphics/SVG/1.1/DTD/svg11.dtd">
<!-- Generated by graphviz version 2.38.0 (20140413.2041)
 -->
<!-- Title: models_diagram Pages: 1 -->
<svg width="1033pt" height="1141pt"
 viewBox="0.00 0.00 1032.63 1141.00" xmlns="http://www.w3.org/2000/svg" xmlns:xlink="http://www.w3.org/1999/xlink">
<g id="graph0" class="graph" transform="scale(1 1) rotate(0) translate(4 1137)">
<title>models_diagram</title>
<polygon fill="white" stroke="none" points="-4,4 -4,-1137 1028.63,-1137 1028.63,4 -4,4"/>
<!-- _diagram_info -->
<g id="node1" class="node"><title>_diagram_info</title>
<text text-anchor="start" x="8" y="-1118.6" font-family="Times,serif" font-size="13.00">Models diagram</text>
<text text-anchor="start" x="8" y="-1105.6" font-family="Times,serif" font-size="13.00">Date: Sep 08 2014 &#45; 14:18</text>
<text text-anchor="start" x="8" y="-1092.6" font-family="Times,serif" font-size="13.00">Migration version: 20140830022628</text>
<text text-anchor="start" x="8" y="-1079.6" font-family="Times,serif" font-size="13.00">Generated by RailRoady 1.1.2</text>
<text text-anchor="start" x="8" y="-1066.6" font-family="Times,serif" font-size="13.00">http://railroady.prestonlee.com</text>
</g>
<!-- Ability -->
<g id="node2" class="node"><title>Ability</title>
<polygon fill="none" stroke="black" points="230.853,-951.5 230.853,-995.5 286.522,-995.5 286.522,-951.5 230.853,-951.5"/>
<text text-anchor="middle" x="258.688" y="-980.3" font-family="Times,serif" font-size="14.00">Ability</text>
<polyline fill="none" stroke="black" points="230.853,-973.5 286.522,-973.5 "/>
<text text-anchor="middle" x="258.688" y="-958.3" font-family="Times,serif" font-size="14.00"> </text>
</g>
<!-- Comment -->
<g id="node3" class="node"><title>Comment</title>
<path fill="none" stroke="black" d="M394.445,-0.5C394.445,-0.5 508.931,-0.5 508.931,-0.5 514.931,-0.5 520.931,-6.5 520.931,-12.5 520.931,-12.5 520.931,-116.5 520.931,-116.5 520.931,-122.5 514.931,-128.5 508.931,-128.5 508.931,-128.5 394.445,-128.5 394.445,-128.5 388.445,-128.5 382.445,-122.5 382.445,-116.5 382.445,-116.5 382.445,-12.5 382.445,-12.5 382.445,-6.5 388.445,-0.5 394.445,-0.5"/>
<text text-anchor="middle" x="451.688" y="-113.3" font-family="Times,serif" font-size="14.00">Comment</text>
<polyline fill="none" stroke="black" points="382.445,-106.5 520.931,-106.5 "/>
<text text-anchor="start" x="390.445" y="-91.3" font-family="Times,serif" font-size="14.00">id :integer</text>
<text text-anchor="start" x="390.445" y="-77.3" font-family="Times,serif" font-size="14.00">content :text</text>
<text text-anchor="start" x="390.445" y="-63.3" font-family="Times,serif" font-size="14.00">user_id :integer</text>
<text text-anchor="start" x="390.445" y="-49.3" font-family="Times,serif" font-size="14.00">discussion_id :integer</text>
<text text-anchor="start" x="390.445" y="-35.3" font-family="Times,serif" font-size="14.00">comment_id :integer</text>
<text text-anchor="start" x="390.445" y="-21.3" font-family="Times,serif" font-size="14.00">created_at :datetime</text>
<text text-anchor="start" x="390.445" y="-7.3" font-family="Times,serif" font-size="14.00">updated_at :datetime</text>
</g>
<!-- Discussion -->
<g id="node4" class="node"><title>Discussion</title>
<path fill="none" stroke="black" d="M374.251,-165.5C374.251,-165.5 529.124,-165.5 529.124,-165.5 535.124,-165.5 541.124,-171.5 541.124,-177.5 541.124,-177.5 541.124,-281.5 541.124,-281.5 541.124,-287.5 535.124,-293.5 529.124,-293.5 529.124,-293.5 374.251,-293.5 374.251,-293.5 368.251,-293.5 362.251,-287.5 362.251,-281.5 362.251,-281.5 362.251,-177.5 362.251,-177.5 362.251,-171.5 368.251,-165.5 374.251,-165.5"/>
<text text-anchor="middle" x="451.688" y="-278.3" font-family="Times,serif" font-size="14.00">Discussion</text>
<polyline fill="none" stroke="black" points="362.251,-271.5 541.124,-271.5 "/>
<text text-anchor="start" x="370.251" y="-256.3" font-family="Times,serif" font-size="14.00">id :integer</text>
<text text-anchor="start" x="370.251" y="-242.3" font-family="Times,serif" font-size="14.00">title :string</text>
<text text-anchor="start" x="370.251" y="-228.3" font-family="Times,serif" font-size="14.00">content :text</text>
<text text-anchor="start" x="370.251" y="-214.3" font-family="Times,serif" font-size="14.00">lecture_recording_id :integer</text>
<text text-anchor="start" x="370.251" y="-200.3" font-family="Times,serif" font-size="14.00">user_id :integer</text>
<text text-anchor="start" x="370.251" y="-186.3" font-family="Times,serif" font-size="14.00">created_at :datetime</text>
<text text-anchor="start" x="370.251" y="-172.3" font-family="Times,serif" font-size="14.00">updated_at :datetime</text>
</g>
<!-- Discussion&#45;&gt;Comment -->
<g id="edge3" class="edge"><title>Discussion&#45;&gt;Comment</title>
<path fill="none" stroke="#b8c109" d="M451.688,-157.473C451.688,-151.322 451.688,-145.09 451.688,-138.92"/>
<ellipse fill="none" stroke="#b8c109" cx="451.688" cy="-161.48" rx="4" ry="4"/>
<polygon fill="#b8c109" stroke="#b8c109" points="451.688,-138.621 456.188,-128.621 451.688,-133.621 451.688,-128.621 451.688,-128.621 451.688,-128.621 451.688,-133.621 447.188,-128.621 451.688,-138.621 451.688,-138.621"/>
</g>
<!-- LectureRecording -->
<g id="node5" class="node"><title>LectureRecording</title>
<path fill="none" stroke="black" d="M392.896,-330.5C392.896,-330.5 510.479,-330.5 510.479,-330.5 516.479,-330.5 522.479,-336.5 522.479,-342.5 522.479,-342.5 522.479,-460.5 522.479,-460.5 522.479,-466.5 516.479,-472.5 510.479,-472.5 510.479,-472.5 392.896,-472.5 392.896,-472.5 386.896,-472.5 380.896,-466.5 380.896,-460.5 380.896,-460.5 380.896,-342.5 380.896,-342.5 380.896,-336.5 386.896,-330.5 392.896,-330.5"/>
<text text-anchor="middle" x="451.688" y="-457.3" font-family="Times,serif" font-size="14.00">LectureRecording</text>
<polyline fill="none" stroke="black" points="380.896,-450.5 522.479,-450.5 "/>
<text text-anchor="start" x="388.896" y="-435.3" font-family="Times,serif" font-size="14.00">id :integer</text>
<text text-anchor="start" x="388.896" y="-421.3" font-family="Times,serif" font-size="14.00">name :string</text>
<text text-anchor="start" x="388.896" y="-407.3" font-family="Times,serif" font-size="14.00">created_at :datetime</text>
<text text-anchor="start" x="388.896" y="-393.3" font-family="Times,serif" font-size="14.00">updated_at :datetime</text>
<text text-anchor="start" x="388.896" y="-379.3" font-family="Times,serif" font-size="14.00">user_id :integer</text>
<text text-anchor="start" x="388.896" y="-365.3" font-family="Times,serif" font-size="14.00">raw_video :string</text>
<text text-anchor="start" x="388.896" y="-351.3" font-family="Times,serif" font-size="14.00">processed_path :string</text>
<text text-anchor="start" x="388.896" y="-337.3" font-family="Times,serif" font-size="14.00">semester_id :integer</text>
</g>
<!-- LectureRecording&#45;&gt;Discussion -->
<g id="edge5" class="edge"><title>LectureRecording&#45;&gt;Discussion</title>
<path fill="none" stroke="#d81f41" d="M451.688,-322.341C451.688,-316.186 451.688,-309.982 451.688,-303.861"/>
<ellipse fill="none" stroke="#d81f41" cx="451.688" cy="-326.373" rx="4" ry="4"/>
<polygon fill="#d81f41" stroke="#d81f41" points="451.688,-303.66 456.188,-293.66 451.688,-298.66 451.688,-293.66 451.688,-293.66 451.688,-293.66 451.688,-298.66 447.188,-293.66 451.688,-303.66 451.688,-303.66"/>
</g>
<!-- Role -->
<g id="node6" class="node"><title>Role</title>
<path fill="none" stroke="black" d="M459.182,-930.5C459.182,-930.5 568.193,-930.5 568.193,-930.5 574.193,-930.5 580.193,-936.5 580.193,-942.5 580.193,-942.5 580.193,-1004.5 580.193,-1004.5 580.193,-1010.5 574.193,-1016.5 568.193,-1016.5 568.193,-1016.5 459.182,-1016.5 459.182,-1016.5 453.182,-1016.5 447.182,-1010.5 447.182,-1004.5 447.182,-1004.5 447.182,-942.5 447.182,-942.5 447.182,-936.5 453.182,-930.5 459.182,-930.5"/>
<text text-anchor="middle" x="513.688" y="-1001.3" font-family="Times,serif" font-size="14.00">Role</text>
<polyline fill="none" stroke="black" points="447.182,-994.5 580.193,-994.5 "/>
<text text-anchor="start" x="455.182" y="-979.3" font-family="Times,serif" font-size="14.00">id :integer</text>
<text text-anchor="start" x="455.182" y="-965.3" font-family="Times,serif" font-size="14.00">name :string</text>
<text text-anchor="start" x="455.182" y="-951.3" font-family="Times,serif" font-size="14.00">created_at :datetime</text>
<text text-anchor="start" x="455.182" y="-937.3" font-family="Times,serif" font-size="14.00">updated_at :datetime</text>
</g>
<!-- User -->
<g id="node9" class="node"><title>User</title>
<path fill="none" stroke="black" d="M642.41,-509.5C642.41,-509.5 822.966,-509.5 822.966,-509.5 828.966,-509.5 834.966,-515.5 834.966,-521.5 834.966,-521.5 834.966,-723.5 834.966,-723.5 834.966,-729.5 828.966,-735.5 822.966,-735.5 822.966,-735.5 642.41,-735.5 642.41,-735.5 636.41,-735.5 630.41,-729.5 630.41,-723.5 630.41,-723.5 630.41,-521.5 630.41,-521.5 630.41,-515.5 636.41,-509.5 642.41,-509.5"/>
<text text-anchor="middle" x="732.688" y="-720.3" font-family="Times,serif" font-size="14.00">User</text>
<polyline fill="none" stroke="black" points="630.41,-713.5 834.966,-713.5 "/>
<text text-anchor="start" x="638.41" y="-698.3" font-family="Times,serif" font-size="14.00">id :integer</text>
<text text-anchor="start" x="638.41" y="-684.3" font-family="Times,serif" font-size="14.00">email :string</text>
<text text-anchor="start" x="638.41" y="-670.3" font-family="Times,serif" font-size="14.00">encrypted_password :string</text>
<text text-anchor="start" x="638.41" y="-656.3" font-family="Times,serif" font-size="14.00">reset_password_token :string</text>
<text text-anchor="start" x="638.41" y="-642.3" font-family="Times,serif" font-size="14.00">reset_password_sent_at :datetime</text>
<text text-anchor="start" x="638.41" y="-628.3" font-family="Times,serif" font-size="14.00">remember_created_at :datetime</text>
<text text-anchor="start" x="638.41" y="-614.3" font-family="Times,serif" font-size="14.00">sign_in_count :integer</text>
<text text-anchor="start" x="638.41" y="-600.3" font-family="Times,serif" font-size="14.00">current_sign_in_at :datetime</text>
<text text-anchor="start" x="638.41" y="-586.3" font-family="Times,serif" font-size="14.00">last_sign_in_at :datetime</text>
<text text-anchor="start" x="638.41" y="-572.3" font-family="Times,serif" font-size="14.00">current_sign_in_ip :inet</text>
<text text-anchor="start" x="638.41" y="-558.3" font-family="Times,serif" font-size="14.00">last_sign_in_ip :inet</text>
<text text-anchor="start" x="638.41" y="-544.3" font-family="Times,serif" font-size="14.00">created_at :datetime</text>
<text text-anchor="start" x="638.41" y="-530.3" font-family="Times,serif" font-size="14.00">updated_at :datetime</text>
<text text-anchor="start" x="638.41" y="-516.3" font-family="Times,serif" font-size="14.00">name :string</text>
</g>
<!-- Role&#45;&gt;User -->
<g id="edge8" class="edge"><title>Role&#45;&gt;User</title>
<path fill="none" stroke="#e50706" d="M520.838,-920.406C528.712,-869.135 542.555,-795.246 559.688,-772 578.592,-746.35 596.498,-755.513 621.688,-736 621.864,-735.863 622.04,-735.727 622.216,-735.59"/>
<polygon fill="#e50706" stroke="#e50706" points="520.832,-920.448 514.894,-929.667 520.088,-925.392 519.344,-930.337 519.344,-930.337 519.344,-930.337 520.088,-925.392 523.794,-931.006 520.832,-920.448 520.832,-920.448"/>
<polygon fill="#e50706" stroke="#e50706" points="622.329,-735.5 632.95,-732.769 626.234,-732.377 630.14,-729.255 630.14,-729.255 630.14,-729.255 626.234,-732.377 627.329,-725.74 622.329,-735.5 622.329,-735.5"/>
</g>
<!-- RolesUser -->
<g id="node12" class="node"><title>RolesUser</title>
<ellipse fill="none" stroke="black" cx="465.688" cy="-829.5" rx="46.8977" ry="18"/>
<text text-anchor="middle" x="465.688" y="-825.3" font-family="Times,serif" font-size="14.00">RolesUser</text>
</g>
<!-- Role&#45;&gt;RolesUser -->
<g id="edge7" class="edge"><title>Role&#45;&gt;RolesUser</title>
<path fill="none" stroke="#7fcd17" d="M496.846,-922.678C489.391,-900.623 480.922,-875.568 474.697,-857.152"/>
<ellipse fill="none" stroke="#7fcd17" cx="498.135" cy="-926.49" rx="4.00001" ry="4.00001"/>
<polygon fill="#7fcd17" stroke="#7fcd17" points="474.692,-857.138 475.753,-846.224 473.091,-852.402 471.49,-847.665 471.49,-847.665 471.49,-847.665 473.091,-852.402 467.227,-849.106 474.692,-857.138 474.692,-857.138"/>
</g>
<!-- Semester -->
<g id="node7" class="node"><title>Semester</title>
<path fill="none" stroke="black" d="M580.724,-772.5C580.724,-772.5 714.652,-772.5 714.652,-772.5 720.652,-772.5 726.652,-778.5 726.652,-784.5 726.652,-784.5 726.652,-874.5 726.652,-874.5 726.652,-880.5 720.652,-886.5 714.652,-886.5 714.652,-886.5 580.724,-886.5 580.724,-886.5 574.724,-886.5 568.724,-880.5 568.724,-874.5 568.724,-874.5 568.724,-784.5 568.724,-784.5 568.724,-778.5 574.724,-772.5 580.724,-772.5"/>
<text text-anchor="middle" x="647.688" y="-871.3" font-family="Times,serif" font-size="14.00">Semester</text>
<polyline fill="none" stroke="black" points="568.724,-864.5 726.652,-864.5 "/>
<text text-anchor="start" x="576.724" y="-849.3" font-family="Times,serif" font-size="14.00">id :integer</text>
<text text-anchor="start" x="576.724" y="-835.3" font-family="Times,serif" font-size="14.00">session :integer</text>
<text text-anchor="start" x="576.724" y="-821.3" font-family="Times,serif" font-size="14.00">year :integer</text>
<text text-anchor="start" x="576.724" y="-807.3" font-family="Times,serif" font-size="14.00">unit_of_study_id :integer</text>
<text text-anchor="start" x="576.724" y="-793.3" font-family="Times,serif" font-size="14.00">created_at :datetime</text>
<text text-anchor="start" x="576.724" y="-779.3" font-family="Times,serif" font-size="14.00">updated_at :datetime</text>
</g>
<!-- Semester&#45;&gt;LectureRecording -->
<g id="edge12" class="edge"><title>Semester&#45;&gt;LectureRecording</title>
<path fill="none" stroke="#a88828" d="M561.389,-790.975C524.925,-773.299 488.397,-752.52 477.688,-736 428.886,-660.718 429.515,-554.848 437.689,-482.722"/>
<ellipse fill="none" stroke="#a88828" cx="565.067" cy="-792.738" rx="4.00002" ry="4.00002"/>
<polygon fill="#a88828" stroke="#a88828" points="437.691,-482.703 443.355,-473.314 438.289,-477.739 438.887,-472.775 438.887,-472.775 438.887,-472.775 438.289,-477.739 434.42,-472.237 437.691,-482.703 437.691,-482.703"/>
</g>
<!-- Semester&#45;&gt;User -->
<g id="edge11" class="edge"><title>Semester&#45;&gt;User</title>
<path fill="none" stroke="#381b15" d="M674.795,-763.125C677.186,-757.356 679.654,-751.406 682.159,-745.363"/>
<polygon fill="#381b15" stroke="#381b15" points="674.745,-763.245 666.758,-770.759 672.829,-767.864 670.914,-772.483 670.914,-772.483 670.914,-772.483 672.829,-767.864 675.071,-774.206 674.745,-763.245 674.745,-763.245"/>
<polygon fill="#381b15" stroke="#381b15" points="682.293,-745.04 690.28,-737.526 684.208,-740.421 686.123,-735.802 686.123,-735.802 686.123,-735.802 684.208,-740.421 681.966,-734.079 682.293,-745.04 682.293,-745.04"/>
</g>
<!-- SemestersUser -->
<g id="node13" class="node"><title>SemestersUser</title>
<ellipse fill="none" stroke="black" cx="549.688" cy="-622.5" rx="62.8252" ry="18"/>
<text text-anchor="middle" x="549.688" y="-618.3" font-family="Times,serif" font-size="14.00">SemestersUser</text>
</g>
<!-- Semester&#45;&gt;SemestersUser -->
<g id="edge10" class="edge"><title>Semester&#45;&gt;SemestersUser</title>
<path fill="none" stroke="#7bae90" d="M617.372,-765.084C598.772,-726.176 575.947,-678.43 562.125,-649.516"/>
<ellipse fill="none" stroke="#7bae90" cx="619.184" cy="-768.874" rx="4.00002" ry="4.00002"/>
<polygon fill="#7bae90" stroke="#7bae90" points="562.114,-649.494 561.861,-638.531 559.958,-644.983 557.801,-640.472 557.801,-640.472 557.801,-640.472 559.958,-644.983 553.741,-642.413 562.114,-649.494 562.114,-649.494"/>
</g>
<!-- UnitOfStudy -->
<g id="node8" class="node"><title>UnitOfStudy</title>
<path fill="none" stroke="black" d="M720.182,-923.5C720.182,-923.5 829.193,-923.5 829.193,-923.5 835.193,-923.5 841.193,-929.5 841.193,-935.5 841.193,-935.5 841.193,-1011.5 841.193,-1011.5 841.193,-1017.5 835.193,-1023.5 829.193,-1023.5 829.193,-1023.5 720.182,-1023.5 720.182,-1023.5 714.182,-1023.5 708.182,-1017.5 708.182,-1011.5 708.182,-1011.5 708.182,-935.5 708.182,-935.5 708.182,-929.5 714.182,-923.5 720.182,-923.5"/>
<text text-anchor="middle" x="774.688" y="-1008.3" font-family="Times,serif" font-size="14.00">UnitOfStudy</text>
<polyline fill="none" stroke="black" points="708.182,-1001.5 841.193,-1001.5 "/>
<text text-anchor="start" x="716.182" y="-986.3" font-family="Times,serif" font-size="14.00">id :integer</text>
<text text-anchor="start" x="716.182" y="-972.3" font-family="Times,serif" font-size="14.00">title :string</text>
<text text-anchor="start" x="716.182" y="-958.3" font-family="Times,serif" font-size="14.00">alpha_code :string</text>
<text text-anchor="start" x="716.182" y="-944.3" font-family="Times,serif" font-size="14.00">created_at :datetime</text>
<text text-anchor="start" x="716.182" y="-930.3" font-family="Times,serif" font-size="14.00">updated_at :datetime</text>
</g>
<!-- UnitOfStudy&#45;&gt;Semester -->
<g id="edge14" class="edge"><title>UnitOfStudy&#45;&gt;Semester</title>
<path fill="none" stroke="#9085fe" d="M725.17,-917.134C718.531,-909.711 711.678,-902.048 704.92,-894.492"/>
<ellipse fill="none" stroke="#9085fe" cx="727.959" cy="-920.252" rx="4.00002" ry="4.00002"/>
<polygon fill="#9085fe" stroke="#9085fe" points="704.872,-894.438 701.559,-883.984 701.538,-890.711 698.205,-886.984 698.205,-886.984 698.205,-886.984 701.538,-890.711 694.851,-889.984 704.872,-894.438 704.872,-894.438"/>
</g>
<!-- UnitOfStudy&#45;&gt;User -->
<g id="edge16" class="edge"><title>UnitOfStudy&#45;&gt;User</title>
<path fill="none" stroke="#0435ad" d="M850.208,-938.714C870.618,-925.653 890.214,-908.557 901.688,-887 925.703,-841.882 922.759,-818.566 901.688,-772 888.538,-742.941 866.581,-717.311 842.774,-695.878"/>
<polygon fill="#0435ad" stroke="#0435ad" points="849.97,-938.859 839.089,-940.223 845.701,-941.462 841.432,-944.065 841.432,-944.065 841.432,-944.065 845.701,-941.462 843.775,-947.907 849.97,-938.859 849.97,-938.859"/>
<polygon fill="#0435ad" stroke="#0435ad" points="842.515,-695.652 837.95,-685.681 838.751,-692.36 834.988,-689.068 834.988,-689.068 834.988,-689.068 838.751,-692.36 832.025,-692.455 842.515,-695.652 842.515,-695.652"/>
</g>
<!-- UnitofstudiesUser -->
<g id="node14" class="node"><title>UnitofstudiesUser</title>
<ellipse fill="none" stroke="black" cx="818.688" cy="-829.5" rx="74.4189" ry="18"/>
<text text-anchor="middle" x="818.688" y="-825.3" font-family="Times,serif" font-size="14.00">UnitofstudiesUser</text>
</g>
<!-- UnitOfStudy&#45;&gt;UnitofstudiesUser -->
<g id="edge15" class="edge"><title>UnitOfStudy&#45;&gt;UnitofstudiesUser</title>
<path fill="none" stroke="#17f689" d="M792.373,-915.426C798.56,-895.458 805.221,-873.961 810.293,-857.591"/>
<ellipse fill="none" stroke="#17f689" cx="791.137" cy="-919.413" rx="4.00001" ry="4.00001"/>
<polygon fill="#17f689" stroke="#17f689" points="810.416,-857.194 817.675,-848.974 811.896,-852.418 813.376,-847.642 813.376,-847.642 813.376,-847.642 811.896,-852.418 809.078,-846.31 810.416,-857.194 810.416,-857.194"/>
</g>
<!-- User&#45;&gt;Comment -->
<g id="edge23" class="edge"><title>User&#45;&gt;Comment</title>
<path fill="none" stroke="#1a3890" d="M743.533,-501.138C743.819,-446.717 737.493,-382.898 713.688,-330 674.024,-241.861 591.302,-166.443 529.359,-118.957"/>
<ellipse fill="none" stroke="#1a3890" cx="743.484" cy="-505.443" rx="4" ry="4"/>
<polygon fill="#1a3890" stroke="#1a3890" points="529.115,-118.773 523.865,-109.145 525.131,-115.752 521.147,-112.731 521.147,-112.731 521.147,-112.731 525.131,-115.752 518.428,-116.317 529.115,-118.773 529.115,-118.773"/>
</g>
<!-- User&#45;&gt;Discussion -->
<g id="edge22" class="edge"><title>User&#45;&gt;Discussion</title>
<path fill="none" stroke="#7667e5" d="M624.083,-511.025C623.284,-510.345 622.485,-509.67 621.688,-509 600.167,-490.917 585.848,-495.999 569.688,-473 531.881,-419.193 561.38,-388.676 531.688,-330 526.86,-320.461 521.012,-310.984 514.699,-301.884"/>
<ellipse fill="none" stroke="#7667e5" cx="627.188" cy="-513.706" rx="4.00002" ry="4.00002"/>
<polygon fill="#7667e5" stroke="#7667e5" points="514.616,-301.768 512.443,-291.02 511.701,-297.705 508.787,-293.643 508.787,-293.643 508.787,-293.643 511.701,-297.705 505.13,-296.266 514.616,-301.768 514.616,-301.768"/>
</g>
<!-- User&#45;&gt;LectureRecording -->
<g id="edge21" class="edge"><title>User&#45;&gt;LectureRecording</title>
<path fill="none" stroke="#fcbc8a" d="M623.548,-510.275C622.929,-509.847 622.308,-509.421 621.688,-509 587.743,-485.958 571.738,-494.322 536.688,-473 534.968,-471.954 533.246,-470.875 531.525,-469.767"/>
<ellipse fill="none" stroke="#fcbc8a" cx="626.905" cy="-512.678" rx="4.00002" ry="4.00002"/>
<polygon fill="#fcbc8a" stroke="#fcbc8a" points="531.252,-469.584 525.452,-460.278 527.099,-466.8 522.946,-464.015 522.946,-464.015 522.946,-464.015 527.099,-466.8 520.44,-467.753 531.252,-469.584 531.252,-469.584"/>
</g>
<!-- UsersRole -->
<g id="node15" class="node"><title>UsersRole</title>
<ellipse fill="none" stroke="black" cx="807.688" cy="-401.5" rx="46.8977" ry="18"/>
<text text-anchor="middle" x="807.688" y="-397.3" font-family="Times,serif" font-size="14.00">UsersRole</text>
</g>
<!-- User&#45;&gt;UsersRole -->
<g id="edge18" class="edge"><title>User&#45;&gt;UsersRole</title>
<path fill="none" stroke="#b85f5b" d="M773.743,-501.619C783.11,-474.267 792.179,-447.786 798.583,-429.086"/>
<ellipse fill="none" stroke="#b85f5b" cx="772.363" cy="-505.65" rx="4.00001" ry="4.00001"/>
<polygon fill="#b85f5b" stroke="#b85f5b" points="798.611,-429.003 806.109,-421 800.231,-424.272 801.851,-419.542 801.851,-419.542 801.851,-419.542 800.231,-424.272 797.594,-418.084 798.611,-429.003 798.611,-429.003"/>
</g>
<!-- UsersUnitOfStudy -->
<g id="node16" class="node"><title>UsersUnitOfStudy</title>
<ellipse fill="none" stroke="black" cx="948.688" cy="-401.5" rx="75.8812" ry="18"/>
<text text-anchor="middle" x="948.688" y="-397.3" font-family="Times,serif" font-size="14.00">UsersUnitOfStudy</text>
</g>
<!-- User&#45;&gt;UsersUnitOfStudy -->
<g id="edge19" class="edge"><title>User&#45;&gt;UsersUnitOfStudy</title>
<path fill="none" stroke="#36375c" d="M840.714,-511.973C872.464,-479.782 904.212,-447.594 924.98,-426.537"/>
<ellipse fill="none" stroke="#36375c" cx="837.804" cy="-514.924" rx="4.00002" ry="4.00002"/>
<polygon fill="#36375c" stroke="#36375c" points="925.092,-426.424 935.318,-422.464 928.603,-422.864 932.114,-419.304 932.114,-419.304 932.114,-419.304 928.603,-422.864 928.91,-416.144 925.092,-426.424 925.092,-426.424"/>
</g>
<!-- UsersSemester -->
<g id="node17" class="node"><title>UsersSemester</title>
<ellipse fill="none" stroke="black" cx="641.688" cy="-401.5" rx="62.8252" ry="18"/>
<text text-anchor="middle" x="641.688" y="-397.3" font-family="Times,serif" font-size="14.00">UsersSemester</text>
</g>
<!-- User&#45;&gt;UsersSemester -->
<g id="edge20" class="edge"><title>User&#45;&gt;UsersSemester</title>
<path fill="none" stroke="#6c24e9" d="M683.045,-502.03C671.575,-474.426 660.459,-447.674 652.645,-428.87"/>
<ellipse fill="none" stroke="#6c24e9" cx="684.587" cy="-505.74" rx="4.00002" ry="4.00002"/>
<polygon fill="#6c24e9" stroke="#6c24e9" points="652.606,-428.777 652.925,-417.815 650.688,-424.159 648.769,-419.542 648.769,-419.542 648.769,-419.542 650.688,-424.159 644.614,-421.269 652.606,-428.777 652.606,-428.777"/>
</g>
<!-- Object -->
<g id="node10" class="node"><title>Object</title>
<ellipse fill="none" stroke="black" cx="258.688" cy="-1096.5" rx="33.8596" ry="18"/>
<text text-anchor="middle" x="258.688" y="-1092.3" font-family="Times,serif" font-size="14.00">Object</text>
</g>
<!-- Object&#45;&gt;Ability -->
<g id="edge1" class="edge"><title>Object&#45;&gt;Ability</title>
<path fill="none" stroke="black" d="M258.688,-1078.42C258.688,-1056.66 258.688,-1019.07 258.688,-995.558"/>
</g>
<!-- ActiveRecord::Base -->
<g id="node11" class="node"><title>ActiveRecord::Base</title>
<ellipse fill="none" stroke="black" cx="513.688" cy="-1096.5" rx="81.1422" ry="18"/>
<text text-anchor="middle" x="513.688" y="-1092.3" font-family="Times,serif" font-size="14.00">ActiveRecord::Base</text>
</g>
<!-- ActiveRecord::Base&#45;&gt;Comment -->
<g id="edge2" class="edge"><title>ActiveRecord::Base&#45;&gt;Comment</title>
<path fill="none" stroke="black" d="M456.287,-1083.59C421.807,-1073.47 379.875,-1055.4 354.688,-1024 299.74,-955.496 314.688,-918.318 314.688,-830.5 314.688,-830.5 314.688,-830.5 314.688,-400.5 314.688,-294.408 305.549,-259.542 353.688,-165 361.059,-150.524 371.284,-136.809 382.365,-124.45"/>
</g>
<!-- ActiveRecord::Base&#45;&gt;Discussion -->
<g id="edge4" class="edge"><title>ActiveRecord::Base&#45;&gt;Discussion</title>
<path fill="none" stroke="black" d="M479.464,-1080.03C456.303,-1067.9 426.747,-1048.91 408.688,-1024 356.135,-951.518 352.688,-920.029 352.688,-830.5 352.688,-830.5 352.688,-830.5 352.688,-621.5 352.688,-491.67 324.601,-450.991 371.688,-330 376.632,-317.296 383.817,-304.954 391.882,-293.533"/>
</g>
<!-- ActiveRecord::Base&#45;&gt;LectureRecording -->
<g id="edge6" class="edge"><title>ActiveRecord::Base&#45;&gt;LectureRecording</title>
<path fill="none" stroke="black" d="M489.712,-1079.23C472.541,-1066.28 450.306,-1046.62 437.688,-1024 407.417,-969.723 415.942,-948.832 409.688,-887 392.758,-719.619 406.244,-675.594 429.688,-509 431.345,-497.222 433.519,-484.791 435.855,-472.741"/>
</g>
<!-- ActiveRecord::Base&#45;&gt;Role -->
<g id="edge9" class="edge"><title>ActiveRecord::Base&#45;&gt;Role</title>
<path fill="none" stroke="black" d="M513.688,-1078.42C513.688,-1062.39 513.688,-1037.78 513.688,-1016.53"/>
</g>
<!-- ActiveRecord::Base&#45;&gt;Semester -->
<g id="edge13" class="edge"><title>ActiveRecord::Base&#45;&gt;Semester</title>
<path fill="none" stroke="black" d="M536.725,-1079.16C553.641,-1066.04 575.974,-1046.19 589.688,-1024 615.776,-981.786 630.745,-927.121 638.915,-886.667"/>
</g>
<!-- ActiveRecord::Base&#45;&gt;UnitOfStudy -->
<g id="edge17" class="edge"><title>ActiveRecord::Base&#45;&gt;UnitOfStudy</title>
<path fill="none" stroke="black" d="M547.009,-1080.05C587.412,-1061.32 656.487,-1029.3 707.983,-1005.42"/>
</g>
<!-- ActiveRecord::Base&#45;&gt;User -->
<g id="edge24" class="edge"><title>ActiveRecord::Base&#45;&gt;User</title>
<path fill="none" stroke="black" d="M584.703,-1087.54C670.787,-1076.7 809.47,-1055.02 850.688,-1024 905.815,-982.513 906.967,-953.937 923.688,-887 936.075,-837.413 946.148,-817.912 923.688,-772 904.63,-733.044 869.876,-701.355 835.187,-677.409"/>
</g>
</g>
</svg>
