<?xml version="1.0" encoding="UTF-8" standalone="no"?>
<!DOCTYPE svg PUBLIC "-//W3C//DTD SVG 1.1//EN"
 "http://www.w3.org/Graphics/SVG/1.1/DTD/svg11.dtd">
<!-- Generated by graphviz version 2.38.0 (20140413.2041)
 -->
<!-- Title: models_diagram Pages: 1 -->
<svg width="1039pt" height="513pt"
 viewBox="0.00 0.00 1038.63 513.00" xmlns="http://www.w3.org/2000/svg" xmlns:xlink="http://www.w3.org/1999/xlink">
<g id="graph0" class="graph" transform="scale(1 1) rotate(0) translate(4 509)">
<title>models_diagram</title>
<polygon fill="white" stroke="none" points="-4,4 -4,-509 1034.63,-509 1034.63,4 -4,4"/>
<!-- _diagram_info -->
<g id="node1" class="node"><title>_diagram_info</title>
<text text-anchor="start" x="8" y="-490.6" font-family="Times,serif" font-size="13.00">Models diagram</text>
<text text-anchor="start" x="8" y="-477.6" font-family="Times,serif" font-size="13.00">Date: Sep 08 2014 &#45; 14:18</text>
<text text-anchor="start" x="8" y="-464.6" font-family="Times,serif" font-size="13.00">Migration version: 20140830022628</text>
<text text-anchor="start" x="8" y="-451.6" font-family="Times,serif" font-size="13.00">Generated by RailRoady 1.1.2</text>
<text text-anchor="start" x="8" y="-438.6" font-family="Times,serif" font-size="13.00">http://railroady.prestonlee.com</text>
</g>
<!-- Ability -->
<g id="node2" class="node"><title>Ability</title>
<polygon fill="none" stroke="black" points="286.358,-396 231.018,-396 231.018,-360 286.358,-360 286.358,-396"/>
<text text-anchor="middle" x="258.688" y="-373.8" font-family="Times,serif" font-size="14.00">Ability</text>
</g>
<!-- Comment -->
<g id="node3" class="node"><title>Comment</title>
<ellipse fill="none" stroke="black" cx="454.688" cy="-18" rx="44.9768" ry="18"/>
<text text-anchor="middle" x="454.688" y="-13.8" font-family="Times,serif" font-size="14.00">Comment</text>
</g>
<!-- Discussion -->
<g id="node4" class="node"><title>Discussion</title>
<ellipse fill="none" stroke="black" cx="454.688" cy="-90" rx="48.8445" ry="18"/>
<text text-anchor="middle" x="454.688" y="-85.8" font-family="Times,serif" font-size="14.00">Discussion</text>
</g>
<!-- Discussion&#45;&gt;Comment -->
<g id="edge3" class="edge"><title>Discussion&#45;&gt;Comment</title>
<path fill="none" stroke="#2152c8" d="M454.688,-63.6398C454.688,-58.0629 454.688,-52.1319 454.688,-46.4761"/>
<ellipse fill="none" stroke="#2152c8" cx="454.688" cy="-67.6966" rx="4" ry="4"/>
<polygon fill="#2152c8" stroke="#2152c8" points="454.688,-46.1043 459.188,-36.1043 454.688,-41.1043 454.688,-36.1043 454.688,-36.1043 454.688,-36.1043 454.688,-41.1043 450.188,-36.1044 454.688,-46.1043 454.688,-46.1043"/>
</g>
<!-- LectureRecording -->
<g id="node5" class="node"><title>LectureRecording</title>
<ellipse fill="none" stroke="black" cx="454.688" cy="-162" rx="73.8912" ry="18"/>
<text text-anchor="middle" x="454.688" y="-157.8" font-family="Times,serif" font-size="14.00">LectureRecording</text>
</g>
<!-- LectureRecording&#45;&gt;Discussion -->
<g id="edge5" class="edge"><title>LectureRecording&#45;&gt;Discussion</title>
<path fill="none" stroke="#99894b" d="M454.688,-135.64C454.688,-130.063 454.688,-124.132 454.688,-118.476"/>
<ellipse fill="none" stroke="#99894b" cx="454.688" cy="-139.697" rx="4" ry="4"/>
<polygon fill="#99894b" stroke="#99894b" points="454.688,-118.104 459.188,-108.104 454.688,-113.104 454.688,-108.104 454.688,-108.104 454.688,-108.104 454.688,-113.104 450.188,-108.104 454.688,-118.104 454.688,-118.104"/>
</g>
<!-- Role -->
<g id="node6" class="node"><title>Role</title>
<ellipse fill="none" stroke="black" cx="503.688" cy="-378" rx="27" ry="18"/>
<text text-anchor="middle" x="503.688" y="-373.8" font-family="Times,serif" font-size="14.00">Role</text>
</g>
<!-- User -->
<g id="node9" class="node"><title>User</title>
<ellipse fill="none" stroke="black" cx="728.688" cy="-234" rx="27" ry="18"/>
<text text-anchor="middle" x="728.688" y="-229.8" font-family="Times,serif" font-size="14.00">User</text>
</g>
<!-- Role&#45;&gt;User -->
<g id="edge8" class="edge"><title>Role&#45;&gt;User</title>
<path fill="none" stroke="#f8b4f6" d="M513.853,-351.101C522.983,-331.083 538.264,-304.147 559.688,-288 605.516,-253.46 629.248,-270.154 683.688,-252 687.788,-250.633 692.069,-249.124 696.29,-247.586"/>
<polygon fill="#f8b4f6" stroke="#f8b4f6" points="513.844,-351.121 505.736,-358.504 511.854,-355.708 509.864,-360.295 509.864,-360.295 509.864,-360.295 511.854,-355.708 513.992,-362.085 513.844,-351.121 513.844,-351.121"/>
<polygon fill="#f8b4f6" stroke="#f8b4f6" points="696.549,-247.49 707.491,-248.216 701.234,-245.744 705.92,-243.999 705.92,-243.999 705.92,-243.999 701.234,-245.744 704.349,-239.782 696.549,-247.49 696.549,-247.49"/>
</g>
<!-- RolesUser -->
<g id="node12" class="node"><title>RolesUser</title>
<ellipse fill="none" stroke="black" cx="465.688" cy="-306" rx="46.8977" ry="18"/>
<text text-anchor="middle" x="465.688" y="-301.8" font-family="Times,serif" font-size="14.00">RolesUser</text>
</g>
<!-- Role&#45;&gt;RolesUser -->
<g id="edge7" class="edge"><title>Role&#45;&gt;RolesUser</title>
<path fill="none" stroke="#498806" d="M491.036,-353.694C487.429,-347.05 483.478,-339.772 479.791,-332.979"/>
<ellipse fill="none" stroke="#498806" cx="492.966" cy="-357.249" rx="4.00002" ry="4.00002"/>
<polygon fill="#498806" stroke="#498806" points="479.755,-332.912 478.938,-321.977 477.369,-328.518 474.984,-324.124 474.984,-324.124 474.984,-324.124 477.369,-328.518 471.029,-326.271 479.755,-332.912 479.755,-332.912"/>
</g>
<!-- Semester -->
<g id="node7" class="node"><title>Semester</title>
<ellipse fill="none" stroke="black" cx="611.688" cy="-306" rx="42.5456" ry="18"/>
<text text-anchor="middle" x="611.688" y="-301.8" font-family="Times,serif" font-size="14.00">Semester</text>
</g>
<!-- Semester&#45;&gt;LectureRecording -->
<g id="edge12" class="edge"><title>Semester&#45;&gt;LectureRecording</title>
<path fill="none" stroke="#12ed2d" d="M583.001,-285.618C569.441,-276.026 553.284,-263.96 539.688,-252 516.63,-231.717 492.67,-206.155 476.089,-187.635"/>
<ellipse fill="none" stroke="#12ed2d" cx="586.551" cy="-288.102" rx="4.00002" ry="4.00002"/>
<polygon fill="#12ed2d" stroke="#12ed2d" points="475.876,-187.396 472.605,-176.929 472.558,-183.656 469.239,-179.916 469.239,-179.916 469.239,-179.916 472.558,-183.656 465.873,-182.902 475.876,-187.396 475.876,-187.396"/>
</g>
<!-- Semester&#45;&gt;User -->
<g id="edge11" class="edge"><title>Semester&#45;&gt;User</title>
<path fill="none" stroke="#14b332" d="M643.959,-285.692C661.646,-275.11 683.368,-262.115 700.389,-251.931"/>
<polygon fill="#14b332" stroke="#14b332" points="643.946,-285.7 633.054,-286.973 639.655,-288.267 635.364,-290.834 635.364,-290.834 635.364,-290.834 639.655,-288.267 637.675,-294.696 643.946,-285.7 643.946,-285.7"/>
<polygon fill="#14b332" stroke="#14b332" points="700.725,-251.73 711.616,-250.458 705.015,-249.163 709.306,-246.596 709.306,-246.596 709.306,-246.596 705.015,-249.163 706.996,-242.734 700.725,-251.73 700.725,-251.73"/>
</g>
<!-- SemestersUser -->
<g id="node13" class="node"><title>SemestersUser</title>
<ellipse fill="none" stroke="black" cx="611.688" cy="-234" rx="62.8252" ry="18"/>
<text text-anchor="middle" x="611.688" y="-229.8" font-family="Times,serif" font-size="14.00">SemestersUser</text>
</g>
<!-- Semester&#45;&gt;SemestersUser -->
<g id="edge10" class="edge"><title>Semester&#45;&gt;SemestersUser</title>
<path fill="none" stroke="#37a370" d="M611.688,-279.64C611.688,-274.063 611.688,-268.132 611.688,-262.476"/>
<ellipse fill="none" stroke="#37a370" cx="611.688" cy="-283.697" rx="4" ry="4"/>
<polygon fill="#37a370" stroke="#37a370" points="611.688,-262.104 616.188,-252.104 611.688,-257.104 611.688,-252.104 611.688,-252.104 611.688,-252.104 611.688,-257.104 607.188,-252.104 611.688,-262.104 611.688,-262.104"/>
</g>
<!-- UnitOfStudy -->
<g id="node8" class="node"><title>UnitOfStudy</title>
<ellipse fill="none" stroke="black" cx="712.688" cy="-378" rx="55.6026" ry="18"/>
<text text-anchor="middle" x="712.688" y="-373.8" font-family="Times,serif" font-size="14.00">UnitOfStudy</text>
</g>
<!-- UnitOfStudy&#45;&gt;Semester -->
<g id="edge14" class="edge"><title>UnitOfStudy&#45;&gt;Semester</title>
<path fill="none" stroke="#02195a" d="M683.596,-356.837C670.347,-347.655 654.687,-336.801 641.368,-327.571"/>
<ellipse fill="none" stroke="#02195a" cx="686.985" cy="-359.186" rx="4.00002" ry="4.00002"/>
<polygon fill="#02195a" stroke="#02195a" points="641.222,-327.469 635.566,-318.074 637.113,-324.621 633.003,-321.773 633.003,-321.773 633.003,-321.773 637.113,-324.621 630.44,-325.472 641.222,-327.469 641.222,-327.469"/>
</g>
<!-- UnitOfStudy&#45;&gt;User -->
<g id="edge16" class="edge"><title>UnitOfStudy&#45;&gt;User</title>
<path fill="none" stroke="#320045" d="M769.787,-365.299C792.442,-357.558 816.259,-344.826 829.688,-324 838.359,-310.553 837.966,-301.692 829.688,-288 815.498,-264.529 787.098,-250.941 764.018,-243.413"/>
<polygon fill="#320045" stroke="#320045" points="769.721,-365.32 758.832,-364.028 764.952,-366.82 760.182,-368.32 760.182,-368.32 760.182,-368.32 764.952,-366.82 761.532,-372.613 769.721,-365.32 769.721,-365.32"/>
<polygon fill="#320045" stroke="#320045" points="763.761,-243.335 755.48,-236.147 758.973,-241.896 754.185,-240.456 754.185,-240.456 754.185,-240.456 758.973,-241.896 752.889,-244.766 763.761,-243.335 763.761,-243.335"/>
</g>
<!-- UnitofstudiesUser -->
<g id="node14" class="node"><title>UnitofstudiesUser</title>
<ellipse fill="none" stroke="black" cx="746.688" cy="-306" rx="74.4189" ry="18"/>
<text text-anchor="middle" x="746.688" y="-301.8" font-family="Times,serif" font-size="14.00">UnitofstudiesUser</text>
</g>
<!-- UnitOfStudy&#45;&gt;UnitofstudiesUser -->
<g id="edge15" class="edge"><title>UnitOfStudy&#45;&gt;UnitofstudiesUser</title>
<path fill="none" stroke="#20deb0" d="M724.429,-352.827C727.424,-346.661 730.66,-339.999 733.712,-333.714"/>
<ellipse fill="none" stroke="#20deb0" cx="722.666" cy="-356.457" rx="4.00002" ry="4.00002"/>
<polygon fill="#20deb0" stroke="#20deb0" points="733.928,-333.27 742.345,-326.241 736.112,-328.773 738.297,-324.275 738.297,-324.275 738.297,-324.275 736.112,-328.773 734.249,-322.309 733.928,-333.27 733.928,-333.27"/>
</g>
<!-- User&#45;&gt;Comment -->
<g id="edge23" class="edge"><title>User&#45;&gt;Comment</title>
<path fill="none" stroke="#8b4bcb" d="M732.397,-207.871C733.856,-188.668 732.73,-162.447 719.688,-144 669.338,-72.7848 567.563,-40.8918 505.831,-27.5935"/>
<ellipse fill="none" stroke="#8b4bcb" cx="732.001" cy="-211.906" rx="4" ry="4"/>
<polygon fill="#8b4bcb" stroke="#8b4bcb" points="505.702,-27.5669 496.821,-21.1351 500.806,-26.5544 495.91,-25.5419 495.91,-25.5419 495.91,-25.5419 500.806,-26.5544 494.998,-29.9487 505.702,-27.5669 505.702,-27.5669"/>
</g>
<!-- User&#45;&gt;Discussion -->
<g id="edge22" class="edge"><title>User&#45;&gt;Discussion</title>
<path fill="none" stroke="#b44198" d="M698.339,-221.349C693.452,-219.526 688.439,-217.689 683.688,-216 636.013,-199.056 619.083,-206.016 575.688,-180 555.734,-168.038 556.019,-158.325 537.688,-144 522.372,-132.032 504.291,-120.241 488.92,-110.83"/>
<ellipse fill="none" stroke="#b44198" cx="702.115" cy="-222.769" rx="4.00001" ry="4.00001"/>
<polygon fill="#b44198" stroke="#b44198" points="488.786,-110.749 482.551,-101.729 484.506,-108.165 480.225,-105.581 480.225,-105.581 480.225,-105.581 484.506,-108.165 477.9,-109.434 488.786,-110.749 488.786,-110.749"/>
</g>
<!-- User&#45;&gt;LectureRecording -->
<g id="edge21" class="edge"><title>User&#45;&gt;LectureRecording</title>
<path fill="none" stroke="#9766dc" d="M698.469,-220.953C693.565,-219.181 688.513,-217.463 683.688,-216 629.476,-199.567 566.724,-185.372 520.633,-175.82"/>
<ellipse fill="none" stroke="#9766dc" cx="702.25" cy="-222.359" rx="4.00001" ry="4.00001"/>
<polygon fill="#9766dc" stroke="#9766dc" points="520.562,-175.805 511.672,-169.385 515.664,-174.799 510.766,-173.793 510.766,-173.793 510.766,-173.793 515.664,-174.799 509.861,-178.201 520.562,-175.805 520.562,-175.805"/>
</g>
<!-- UsersRole -->
<g id="node15" class="node"><title>UsersRole</title>
<ellipse fill="none" stroke="black" cx="813.688" cy="-162" rx="46.8977" ry="18"/>
<text text-anchor="middle" x="813.688" y="-157.8" font-family="Times,serif" font-size="14.00">UsersRole</text>
</g>
<!-- User&#45;&gt;UsersRole -->
<g id="edge18" class="edge"><title>User&#45;&gt;UsersRole</title>
<path fill="none" stroke="#265924" d="M751.403,-214.294C762.279,-205.336 775.381,-194.546 786.757,-185.178"/>
<ellipse fill="none" stroke="#265924" cx="748.164" cy="-216.96" rx="4.00002" ry="4.00002"/>
<polygon fill="#265924" stroke="#265924" points="786.959,-185.012 797.539,-182.129 790.819,-181.833 794.678,-178.655 794.678,-178.655 794.678,-178.655 790.819,-181.833 791.818,-175.181 786.959,-185.012 786.959,-185.012"/>
</g>
<!-- UsersUnitOfStudy -->
<g id="node16" class="node"><title>UsersUnitOfStudy</title>
<ellipse fill="none" stroke="black" cx="954.688" cy="-162" rx="75.8812" ry="18"/>
<text text-anchor="middle" x="954.688" y="-157.8" font-family="Times,serif" font-size="14.00">UsersUnitOfStudy</text>
</g>
<!-- User&#45;&gt;UsersUnitOfStudy -->
<g id="edge19" class="edge"><title>User&#45;&gt;UsersUnitOfStudy</title>
<path fill="none" stroke="#328423" d="M760.81,-223.051C797.272,-211.757 857.336,-193.153 900.961,-179.641"/>
<ellipse fill="none" stroke="#328423" cx="756.695" cy="-224.325" rx="4.00001" ry="4.00001"/>
<polygon fill="#328423" stroke="#328423" points="901.007,-179.627 911.891,-180.967 905.783,-178.147 910.559,-176.668 910.559,-176.668 910.559,-176.668 905.783,-178.147 909.228,-172.37 901.007,-179.627 901.007,-179.627"/>
</g>
<!-- UsersSemester -->
<g id="node17" class="node"><title>UsersSemester</title>
<ellipse fill="none" stroke="black" cx="647.688" cy="-162" rx="62.8252" ry="18"/>
<text text-anchor="middle" x="647.688" y="-157.8" font-family="Times,serif" font-size="14.00">UsersSemester</text>
</g>
<!-- User&#45;&gt;UsersSemester -->
<g id="edge20" class="edge"><title>User&#45;&gt;UsersSemester</title>
<path fill="none" stroke="#c38c7a" d="M706.434,-213.769C696.448,-205.138 684.589,-194.89 674.151,-185.869"/>
<ellipse fill="none" stroke="#c38c7a" cx="709.658" cy="-216.555" rx="4.00002" ry="4.00002"/>
<polygon fill="#c38c7a" stroke="#c38c7a" points="674.066,-185.796 669.442,-175.853 670.283,-182.527 666.5,-179.257 666.5,-179.257 666.5,-179.257 670.283,-182.527 663.557,-182.662 674.066,-185.796 674.066,-185.796"/>
</g>
<!-- Object -->
<g id="node10" class="node"><title>Object</title>
<ellipse fill="none" stroke="black" cx="258.688" cy="-468.5" rx="33.8596" ry="18"/>
<text text-anchor="middle" x="258.688" y="-464.3" font-family="Times,serif" font-size="14.00">Object</text>
</g>
<!-- Object&#45;&gt;Ability -->
<g id="edge1" class="edge"><title>Object&#45;&gt;Ability</title>
<path fill="none" stroke="black" d="M258.688,-450.436C258.688,-434.765 258.688,-411.666 258.688,-396.011"/>
</g>
<!-- ActiveRecord::Base -->
<g id="node11" class="node"><title>ActiveRecord::Base</title>
<ellipse fill="none" stroke="black" cx="503.688" cy="-468.5" rx="81.1422" ry="18"/>
<text text-anchor="middle" x="503.688" y="-464.3" font-family="Times,serif" font-size="14.00">ActiveRecord::Base</text>
</g>
<!-- ActiveRecord::Base&#45;&gt;Comment -->
<g id="edge2" class="edge"><title>ActiveRecord::Base&#45;&gt;Comment</title>
<path fill="none" stroke="black" d="M461.272,-453.035C405.549,-431.02 314.688,-383.409 314.688,-307 314.688,-307 314.688,-307 314.688,-161 314.688,-98.1654 385.06,-53.0507 426.019,-32.1141"/>
</g>
<!-- ActiveRecord::Base&#45;&gt;Discussion -->
<g id="edge4" class="edge"><title>ActiveRecord::Base&#45;&gt;Discussion</title>
<path fill="none" stroke="black" d="M472.033,-451.873C427.755,-427.522 352.688,-376.056 352.688,-307 352.688,-307 352.688,-307 352.688,-233 352.688,-192.553 348.636,-177.235 371.688,-144 384.258,-125.877 405.235,-112.561 422.955,-103.809"/>
</g>
<!-- ActiveRecord::Base&#45;&gt;LectureRecording -->
<g id="edge6" class="edge"><title>ActiveRecord::Base&#45;&gt;LectureRecording</title>
<path fill="none" stroke="black" d="M487.805,-450.65C465.261,-425.445 425.015,-375.37 409.688,-324 394.088,-271.715 425.669,-209.395 443.547,-179.977"/>
</g>
<!-- ActiveRecord::Base&#45;&gt;Role -->
<g id="edge9" class="edge"><title>ActiveRecord::Base&#45;&gt;Role</title>
<path fill="none" stroke="black" d="M503.688,-450.436C503.688,-434.765 503.688,-411.666 503.688,-396.011"/>
</g>
<!-- ActiveRecord::Base&#45;&gt;Semester -->
<g id="edge13" class="edge"><title>ActiveRecord::Base&#45;&gt;Semester</title>
<path fill="none" stroke="black" d="M515.042,-450.627C535.838,-419.721 579.803,-354.384 600.486,-323.647"/>
</g>
<!-- ActiveRecord::Base&#45;&gt;UnitOfStudy -->
<g id="edge17" class="edge"><title>ActiveRecord::Base&#45;&gt;UnitOfStudy</title>
<path fill="none" stroke="black" d="M539.616,-452.286C579.181,-435.533 642.226,-408.837 680.314,-392.709"/>
</g>
<!-- ActiveRecord::Base&#45;&gt;User -->
<g id="edge24" class="edge"><title>ActiveRecord::Base&#45;&gt;User</title>
<path fill="none" stroke="black" d="M582.688,-463.999C670.771,-455.07 806.196,-424.775 846.688,-324 852.653,-309.154 855.38,-301.433 846.688,-288 826.496,-256.796 783.094,-243.787 754.931,-238.489"/>
</g>
</g>
</svg>
